{"title":"The Mark Of Zorro   (Action Adventure 1940)   Tyrone Power, Lind","uid":9298294,"size":446538191,"categoryP":"video","categoryS":"movies","magnet":"?xt=urn:btih:e702a2f4ec443034f3bcf7fbb27e8da0489120b7&amp;dn=The+Mark+Of+Zorro+++%28Action+Adventure+1940%29+++Tyrone+Power%2C+Lind&amp;tr=udp%3A%2F%2Ftracker.openbittorrent.com%3A80&amp;tr=udp%3A%2F%2Fopen.demonii.com%3A1337&amp;tr=udp%3A%2F%2Ftracker.coppersurfer.tk%3A6969&amp;tr=udp%3A%2F%2Fexodus.desync.com%3A6969","seeders":1,"leechers":1,"uploader":"BurtonW","files":7,"time":1386196103,"description":" &lt;a href=&quot;http://www.imdb.com/title/tt0032762/?ref_=fn_al_tt_1&quot; rel=&quot;nofollow&quot; target=&quot;_NEW&quot;&gt;http://www.imdb.com/title/tt0032762/?ref_=fn_al_tt_1&lt;/a&gt;\n\n\nNo subtitles!\n\n\nThis is the 'colorized' version and is of good quality.\n\n\nStoryline:\n\nAround 1820 the son of a California nobleman comes home from Spain to find his native land under a villainous dictatorship. On the one hand he plays the useless fop, while on the other he is the masked avenger Zorro.\n\n\nTechnical info:\n\n\nGeneral:\n\nComplete name                  : The Mark Of Zorro   (Action Adventure 1940)   Tyrone Power, Linda Darnell &amp; Basil Rathbone  --[ Colorized ! ]--.mp4\nFormat                         : MPEG-4\nFormat profile                 : Base Media / Version 2\nCodec ID                       : mp42\nFile size                      : 421 MiB\nDuration                       : 1h 33mn\nOverall bit rate mode          : Variable\nOverall bit rate               : 628 Kbps\nEncoded date                   : UTC 2013-11-30 07:48:35\nTagged date                    : UTC 2013-11-30 10:31:39\n\nVideo:\n\nID                             : 1\nFormat                         : AVC\nFormat/Info                    : Advanced Video Codec\nFormat profile                 : &lt;a class=&quot;__cf_email__&quot; href=&quot;/cdn-cgi/l/email-protection&quot; data-cfemail=&quot;b4f9d5dddaf4f8809a84&quot;&gt;[email&amp;#160;protected]&lt;/a&gt;&lt;script cf-hash='f9e31' type=&quot;text/javascript&quot;&gt;\n/* &lt;![CDATA[ */!function(){try{var t=&quot;currentScript&quot;in document?document.currentScript:function(){for(var t=document.getElementsByTagName(&quot;script&quot;),e=t.length;e--;)if(t[e].getAttribute(&quot;cf-hash&quot;))return t[e]}();if(t&amp;&amp;t.previousSibling){var e,r,n,i,c=t.previousSibling,a=c.getAttribute(&quot;data-cfemail&quot;);if(a){for(e=&quot;&quot;,r=parseInt(a.substr(0,2),16),n=2;a.length-n;n+=2)i=parseInt(a.substr(n,2),16)^r,e+=String.fromCharCode(i);e=document.createTextNode(e),c.parentNode.replaceChild(e,c)}}}catch(u){}}();/* ]]&gt; */&lt;/script&gt;\nFormat settings, CABAC         : Yes\nFormat settings, ReFrames      : 16 frames\nCodec ID                       : avc1\nCodec ID/Info                  : Advanced Video Coding\nDuration                       : 1h 33mn\nBit rate mode                  : Variable\nBit rate                       : 464 Kbps\nWidth                          : 464 pixels\nHeight                         : 352 pixels\nDisplay aspect ratio           : 4:3\nFrame rate mode                : Constant\nFrame rate                     : 24.000 fps\nColor space                    : YUV\nChroma subsampling             : 4:2:0\nBit depth                      : 8 bits\nScan type                      : Progressive\nBits/(Pixel*Frame)             : 0.118\nStream size                    : 311 MiB (74%)\nWriting library                : x264 core 130 r2273 b3065e6\nEncoding settings              : Deleted\nEncoded date                   : UTC 2013-11-30 07:48:35\nTagged date                    : UTC 2013-11-30 10:31:39\nColor primaries                : BT.601 NTSC\nTransfer characteristics       : BT.709\nMatrix coefficients            : BT.601\n\nAudio:\n\nID                             : 2\nFormat                         : AAC\nFormat/Info                    : Advanced Audio Codec\nFormat profile                 : LC\nCodec ID                       : 40\nDuration                       : 1h 33mn\nBit rate mode                  : Variable\nBit rate                       : 160 Kbps\nMaximum bit rate               : 247 Kbps\nChannel(s)                     : 2 channels\nChannel positions              : Front: L R\nSampling rate                  : 48.0 KHz\nCompression mode               : Lossy\nDelay relative to video        : 83ms\nStream size                    : 107 MiB (25%)\nEncoded date                   : UTC 2013-11-30 07:48:35\nTagged date                    : UTC 2013-11-30 10:31:38\n","torrent":{"xt":"urn:btih:e702a2f4ec443034f3bcf7fbb27e8da0489120b7","amp;dn":"The+Mark+Of+Zorro+++%28Action+Adventure+1940%29+++Tyrone+Power%2C+Lind","amp;tr":["udp%3A%2F%2Ftracker.openbittorrent.com%3A80","udp%3A%2F%2Fopen.demonii.com%3A1337","udp%3A%2F%2Ftracker.coppersurfer.tk%3A6969","udp%3A%2F%2Fexodus.desync.com%3A6969"],"infoHash":"e702a2f4ec443034f3bcf7fbb27e8da0489120b7","infoHashBuffer":{"type":"Buffer","data":[231,2,162,244,236,68,48,52,243,188,247,251,178,126,141,160,72,145,32,183]},"announce":[],"urlList":[]}}